<svg height="334pt" preserveAspectRatio="xMidYMid meet" viewBox="0 0 334 334" width="334pt" xmlns="http://www.w3.org/2000/svg"><path d="m790 3063c-93-14-225-73-337-152-67-48-183-173-226-246-38-65-79-156-93-207-21-75-29-313-15-423 58-439 238-670 926-1190 325-246 500-403 577-520l43-66 19 28c23 34 218 226 306 303 35 30 68 60 74 65 9 8 37 32 143 120 7 5 19 15 26 22 8 6 88 66 178 134 237 177 299 229 444 374 196 195 316 390 354 575 6 30 14 66 17 80 10 44 12 313 4 387-28 242-128 419-315 558-188 140-442 195-665 145-249-55-421-192-536-427l-47-97-17 61c-54 196-299 417-520 469-50 11-273 16-340 7z" transform="matrix(.1 0 0 -.1 0 334)"/></svg>